<svg xmlns="http://www.w3.org/2000/svg" width="512" height="512" viewBox="0 0 512 512">
  <rect x="32" y="32" width="448" height="448" rx="92" fill="#116d67" />
  <path d="M154 236 C176 194, 212 170, 256 170 C300 170, 336 194, 358 236 C330 220, 294 212, 256 212 C218 212, 182 220, 154 236 Z" fill="#0b5c57" opacity="0.18" />
  <path d="M176 220 C152 156, 156 108, 186 70 C202 78, 214 92, 224 112 C203 142, 200 176, 210 214 Z" fill="#f7fafc" />
  <path d="M336 220 C360 156, 356 108, 326 70 C310 78, 298 92, 288 112 C309 142, 312 176, 302 214 Z" fill="#f7fafc" />
  <path d="M212 238 C228 220, 244 204, 256 194 C268 204, 284 220, 300 238 L292 354 H220 Z" fill="#f7fafc" />
  <rect x="248" y="222" width="16" height="108" rx="8" fill="#116d67" />
  <rect x="226" y="244" width="60" height="14" rx="7" fill="#116d67" />
  <rect x="232" y="274" width="48" height="14" rx="7" fill="#116d67" />
  <rect x="238" y="304" width="36" height="14" rx="7" fill="#116d67" />
</svg>
